<?xml version="1.0" standalone="no"?><!DOCTYPE svg PUBLIC "-//W3C//DTD SVG 1.1//EN" "http://www.w3.org/Graphics/SVG/1.1/DTD/svg11.dtd"><svg t="1733988249652" class="icon" viewBox="0 0 1024 1024" version="1.1" xmlns="http://www.w3.org/2000/svg" p-id="4658" width="26" height="26" xmlns:xlink="http://www.w3.org/1999/xlink"><path d="M512 512m-512 0a512 512 0 1 0 1024 0 512 512 0 1 0-1024 0Z" fill="#4F6CF8" p-id="4659"></path><path d="M373.178182 622.475636l-85.341091-40.029091a23.272727 23.272727 0 0 1-2.071273-41.006545l473.367273-283.461818a23.272727 23.272727 0 0 1 34.978909 23.412363l-68.538182 461.265455a23.272727 23.272727 0 0 1-32.744727 17.710545l-128.349091-59.089454-68.352 74.216727a23.272727 23.272727 0 0 1-40.308364-13.870545l-6.702545-81.803637a23.272727 23.272727 0 0 1 5.050182-16.477091l242.455272-301.986909-298.356363 257.675637a23.272727 23.272727 0 0 1-25.088 3.444363z" fill="#FFFFFF" p-id="4660"></path></svg>